<?xml version="1.0" encoding="utf-8"?>
<!-- Generator: Adobe Illustrator 23.0.0, SVG Export Plug-In . SVG Version: 6.00 Build 0)  -->
<svg version="1.1" id="Layer_1" xmlns="http://www.w3.org/2000/svg" xmlns:xlink="http://www.w3.org/1999/xlink" x="0px" y="0px"
	 viewBox="0 0 100 100" style="enable-background:new 0 0 100 100;" xml:space="preserve">
<style type="text/css">
	.st0{fill:#FD0E1A;}
</style>
<title>CallIocn</title>
<path id="Call_Icon" class="st0" d="M96,78L81.1,63.1c-3.1-2.9-8-2.8-10.9,0.2l-7.5,7.5L61.2,70c-6.6-3.4-12.7-7.8-18-13
	c-5.2-5.3-9.6-11.4-13-18c-0.3-0.5-0.5-1-0.8-1.4l5-5l2.4-2.6c3.1-3,3.2-7.9,0.3-10.9c0,0,0,0-0.1-0.1L22.2,4.2
	c-3.1-3-8-2.9-10.9,0.2c0,0,0,0,0,0L7.1,8.6l0.1,0.1c-1.4,1.9-2.6,3.9-3.4,6.1c-0.8,2-1.3,4.1-1.5,6.2c-2,16.3,5.5,31.1,25.6,51.3
	C55.7,100.1,78.2,98,79.2,97.9c2.1-0.3,4.2-0.8,6.2-1.6c2.2-0.8,4.2-2,6.1-3.4l0.1,0.1l4.3-4.2C98.8,85.9,98.9,81,96,78L96,78z"/>
</svg>
