<?xml version="1.0" encoding="utf-8"?>
<!-- Generator: Adobe Illustrator 25.0.1, SVG Export Plug-In . SVG Version: 6.00 Build 0)  -->
<svg version="1.1" id="Layer_1" xmlns="http://www.w3.org/2000/svg" xmlns:xlink="http://www.w3.org/1999/xlink" x="0px" y="0px"
	 viewBox="0 0 100 100" style="enable-background:new 0 0 100 100;" xml:space="preserve">
<style type="text/css">
	.st0{fill-rule:evenodd;clip-rule:evenodd;fill:#92DD58;}
</style>
<path id="Check_Icon" class="st0" d="M31.6,86.8c2.4,0,4.8-1,6.5-2.8l59.1-60.2c2.4-2.4,2.4-6.3,0-8.8c-2.4-2.4-6.2-2.4-8.6-0.1
	c0,0,0,0,0,0l-0.1,0.1L31.6,73.1L11.4,51.8c-2.3-2.4-6.2-2.4-8.6-0.1c0,0,0,0,0,0l-0.1,0.1c-2.4,2.4-2.4,6.3,0,8.8L25.1,84
	C26.8,85.7,29.2,86.7,31.6,86.8L31.6,86.8z"/>
</svg>
