<?xml version="1.0" encoding="utf-8"?>
<!-- Generator: Adobe Illustrator 23.0.0, SVG Export Plug-In . SVG Version: 6.00 Build 0)  -->
<svg version="1.1" id="Layer_1" xmlns="http://www.w3.org/2000/svg" xmlns:xlink="http://www.w3.org/1999/xlink" x="0px" y="0px"
	 viewBox="0 0 100 100" style="enable-background:new 0 0 100 100;" xml:space="preserve">
<style type="text/css">
	.st0{clip-path:url(#SVGID_2_);}
	.st1{fill:#FD0E1A;}
</style>
<title>SMSIcon</title>
<g id="SMS_icon">
	<g id="Group_1490">
		<g id="Group_1489">
			<g>
				<defs>
					<rect id="SVGID_1_" x="1" y="5.9" width="98" height="88.2"/>
				</defs>
				<clipPath id="SVGID_2_">
					<use xlink:href="#SVGID_1_"  style="overflow:visible;"/>
				</clipPath>
				<g class="st0">
					<g id="Group_1488">
						<path id="Path_378" class="st1" d="M84.3,5.9H15.7C7.6,5.9,1,12.5,1,20.6v42.5c0,8.1,6.6,14.7,14.7,14.7h4.5l-2.9,14.4
							c-0.2,0.9,0.4,1.7,1.3,1.9c0.4,0.1,0.8,0,1.1-0.2l30.7-16.1h33.9c8.1,0,14.7-6.6,14.7-14.7V20.6C99,12.5,92.4,5.9,84.3,5.9z
							 M94.7,62.3c0,6.1-4.9,11-11,11.1H50.5c-0.3,0-0.5,0.1-0.7,0.2L22.7,87.8l2.5-12.5c0.2-0.8-0.4-1.7-1.2-1.9c0,0,0,0,0,0
							c-0.1,0-0.2,0-0.3,0h-6.3c-6.1,0-11-5-11-11v-41c0-6.1,5-11,11-11h66.3c6.1,0,11,4.9,11,11L94.7,62.3z"/>
					</g>
				</g>
			</g>
		</g>
	</g>
	<g id="Group_1493">
		<path id="Path_384" class="st1" d="M25.2,53.8c-1.3-0.4-2.4-1-3.4-1.8l1.2-2.7c0.9,0.7,2,1.3,3.1,1.7c1.1,0.3,2.3,0.5,3.5,0.5
			c1.1,0.1,2.3-0.2,3.2-0.7c0.7-0.4,1.2-1.2,1.1-2.1c0-0.7-0.4-1.4-1-1.8c-1.1-0.5-2.3-0.9-3.5-1.2c-1.4-0.3-2.8-0.7-4.1-1.3
			c-0.9-0.4-1.8-1-2.4-1.8c-0.6-0.8-0.8-1.8-0.8-2.8c0-1.1,0.3-2.3,1-3.2c0.7-1,1.6-1.7,2.7-2.2c1.3-0.5,2.7-0.8,4.1-0.8
			c1.4,0,2.8,0.2,4.1,0.7c1.2,0.4,2.2,1,3.2,1.7L36,38.7c-1.7-1.4-3.8-2.2-6-2.2c-1.1-0.1-2.2,0.2-3.1,0.8c-0.7,0.5-1.2,1.3-1.1,2.2
			c0,0.7,0.4,1.4,1,1.8c1.1,0.6,2.2,1,3.4,1.2c1.4,0.3,2.8,0.7,4.2,1.3c1,0.4,1.8,1,2.5,1.8c0.6,0.8,0.9,1.8,0.8,2.8
			c0,1.1-0.3,2.2-1,3.2c-0.7,1-1.7,1.7-2.8,2.1c-1.4,0.5-2.8,0.8-4.3,0.7C28.1,54.4,26.6,54.2,25.2,53.8z"/>
		<path id="Path_385" class="st1" d="M60.9,33.9v20.3h-3.3V40.8l-5.4,10.1h-2.5l-5.4-10v13.3h-3.3V33.9h2.9l7,13.3L58,33.9
			L60.9,33.9z"/>
		<path id="Path_386" class="st1" d="M67.8,53.8c-1.3-0.4-2.4-1-3.5-1.8l1.2-2.7c0.9,0.7,2,1.3,3.1,1.7c1.1,0.3,2.3,0.5,3.5,0.5
			c1.1,0.1,2.3-0.2,3.2-0.7c0.7-0.4,1.2-1.2,1.1-2c0-0.7-0.4-1.4-1-1.8c-1.1-0.6-2.3-1-3.6-1.2c-1.4-0.3-2.8-0.7-4.1-1.3
			c-0.9-0.4-1.8-1-2.4-1.8c-0.6-0.8-0.8-1.8-0.8-2.8c0-1.1,0.3-2.3,1-3.2c0.7-1,1.7-1.7,2.8-2.2c1.3-0.5,2.7-0.8,4.1-0.8
			c1.4,0,2.7,0.2,4,0.7c1.2,0.4,2.3,0.9,3.2,1.7l-1.2,2.7c-1.7-1.4-3.8-2.2-6-2.2c-1.1-0.1-2.2,0.2-3.1,0.8
			c-0.7,0.5-1.2,1.3-1.1,2.2c0,0.7,0.4,1.4,1,1.8c1.1,0.6,2.2,1,3.4,1.2c1.4,0.3,2.8,0.7,4.2,1.3c1,0.4,1.8,1,2.4,1.8
			c0.6,0.8,0.9,1.8,0.8,2.8c0,1.1-0.3,2.2-1,3.2c-0.7,1-1.7,1.7-2.8,2.1c-1.4,0.5-2.8,0.8-4.3,0.7C70.6,54.4,69.2,54.2,67.8,53.8z"
			/>
	</g>
</g>
</svg>
