<?xml version="1.0" encoding="utf-8"?>
<!-- Generator: Adobe Illustrator 23.0.0, SVG Export Plug-In . SVG Version: 6.00 Build 0)  -->
<svg version="1.1" id="Layer_1" xmlns="http://www.w3.org/2000/svg" xmlns:xlink="http://www.w3.org/1999/xlink" x="0px" y="0px"
	 viewBox="0 0 100 100" style="enable-background:new 0 0 100 100;" xml:space="preserve">
<style type="text/css">
	.st0{fill:#FD0E1A;}
</style>
<title>Whatsapp</title>
<g id="logo">
	<g id="Group_1423">
		<g id="Group_1422">
			<path id="Path_367" class="st0" d="M84,16.1C65.6-2.6,35.5-2.9,16.7,15.5C1.1,30.7-2.1,54.6,8.9,73.4L2.1,98l25.3-6.6
				c7,3.8,14.8,5.8,22.8,5.8l0,0c26.3,0,47.6-21.2,47.7-47.5C97.9,37.1,92.9,25,84,16.1z M50.3,89.1L50.3,89.1
				c-7.1,0-14.1-1.9-20.3-5.5l-1.4-0.9l-15,3.9l4-14.6l-1-1.5c-11.7-18.5-6.2-43,12.4-54.8s43-6.2,54.8,12.4s6.2,43-12.4,54.8
				C65,87,57.7,89.1,50.3,89.1L50.3,89.1z M72,59.6c-1.2-0.6-7-3.5-8.2-3.9s-1.9-0.6-2.7,0.6S58,60.2,57.4,61s-1.4,0.9-2.6,0.3
				c-3.5-1.4-6.8-3.4-9.6-5.9c-2.6-2.4-4.8-5.2-6.6-8.2c-0.7-1.2-0.1-1.8,0.5-2.4s1.2-1.4,1.8-2.1c0.5-0.6,0.9-1.3,1.2-2
				c0.3-0.7,0.3-1.4-0.1-2.1c-0.3-0.6-2.7-6.4-3.7-8.8s-2-2-2.7-2s-1.5,0-2.3,0c-1.2,0-2.4,0.6-3.2,1.5c-2.7,2.6-4.2,6.1-4.1,9.8
				c0.4,4.5,2.1,8.7,4.8,12.3C36,59,43,65.2,51.2,69.3c2.2,0.9,4.5,1.8,6.8,2.5c2.4,0.7,5,0.9,7.5,0.5c3.3-0.7,6.2-2.7,8-5.7
				c0.8-1.8,1-3.7,0.7-5.6C73.9,60.5,73.1,60.2,72,59.6L72,59.6z"/>
		</g>
	</g>
</g>
</svg>
